<svg width="23" height="26" viewBox="0 0 23 26" fill="none" xmlns="http://www.w3.org/2000/svg">
<path d="M11.4937 6.24153V10.1652" stroke="#FF7500" stroke-width="2" stroke-miterlimit="10" stroke-linecap="round"/>
<path d="M11.5173 1.00996C7.1812 1.00996 3.66992 4.52124 3.66992 8.85733V11.3317C3.66992 12.133 3.34 13.3348 2.9276 14.0182L1.43118 16.5162C0.512118 18.0597 1.14839 19.78 2.84512 20.3456C8.47732 22.2191 14.569 22.2191 20.2012 20.3456C21.7919 19.8154 22.4753 17.9537 21.6152 16.5162L20.1188 14.0182C19.7064 13.3348 19.3764 12.1212 19.3764 11.3317V8.85733C19.3647 4.54481 15.8298 1.00996 11.5173 1.00996Z" stroke="#FF7500" stroke-width="2" stroke-miterlimit="10" stroke-linecap="round"/>
<path d="M15.4174 20.8287C15.4174 22.9849 13.65 24.7524 11.4937 24.7524C10.4215 24.7524 9.43173 24.3046 8.72476 23.5976C8.01779 22.8907 7.57004 21.9009 7.57004 20.8287" stroke="#FF7500" stroke-width="2" stroke-miterlimit="10"/>
</svg>
