<svg width="23" height="23" viewBox="0 0 23 23" fill="none" xmlns="http://www.w3.org/2000/svg">
<path d="M12.6346 6.73831C12.2253 6.67595 11.8761 6.67595 11.4657 6.67595H11.464C11.2462 6.67595 11.0287 6.69391 10.8137 6.71165L10.8127 6.71174C10.6141 6.72814 10.4176 6.74433 10.2216 6.74684V3.09516C10.2216 1.42786 8.83184 0.0518022 7.14996 0.0518022C5.24854 0.0518022 3.78549 1.7903 4.15108 3.67454C4.1511 3.67464 4.15112 3.67475 4.15114 3.67485L4.93459 7.97869C2.14102 9.19606 0.0518081 11.3393 0.0518081 13.993V15.6312C0.0518081 17.8637 1.50558 19.7298 3.52789 20.9462C5.62273 22.2342 8.36477 22.9482 11.464 22.9482C14.5631 22.9482 17.3051 22.2343 19.3998 20.9465C21.4943 19.73 22.9482 17.8638 22.9482 15.6312V13.993C22.9482 11.3386 20.7868 9.19566 17.9935 7.97868L18.7771 3.67425L18.7771 3.67426L18.7773 3.67293C19.0697 1.79028 17.6081 0.0518022 15.7062 0.0518022C14.0244 0.0518022 12.6346 1.42786 12.6346 3.09516V6.73831ZM16.8057 8.57038L16.7979 8.61321L16.8387 8.62827C19.9239 9.76549 21.9088 11.7465 21.838 14.0626L21.838 14.0626V14.0642V15.7024C21.838 17.4224 20.6861 18.9931 18.807 20.1366C16.929 21.2794 14.3322 21.9899 11.464 21.9899C8.59593 21.9899 5.99914 21.2794 4.12107 20.1366C2.24203 18.9931 1.09013 17.4224 1.09013 15.7024V14.0642C1.09013 11.818 3.0765 9.8365 6.08973 8.69936L6.13014 8.68411L6.1224 8.64161L5.18768 3.51323L5.18772 3.51322L5.18726 3.51118C4.90713 2.26243 5.88792 1.08136 7.14996 1.08136C8.27223 1.08136 9.1833 1.98459 9.1833 3.09516V7.72494V7.77674H9.2351C9.38175 7.77674 9.54584 7.75868 9.70631 7.74102L9.70813 7.74082C9.87064 7.72293 10.0294 7.70551 10.1698 7.70551V7.70622L10.1783 7.70482C10.6048 7.6344 11.032 7.63429 11.464 7.63429C11.6771 7.63429 11.8726 7.65186 12.0706 7.66969L12.0715 7.66977C12.2687 7.68753 12.4683 7.70551 12.6864 7.70551C12.9757 7.70551 13.3284 7.70581 13.6086 7.77522L13.6729 7.79114V7.72494V3.02393C13.6729 1.91336 14.584 1.01014 15.7062 1.01014C17.0383 1.01014 17.9508 2.19002 17.7404 3.44228C17.7403 3.44242 17.7403 3.44256 17.7403 3.4427L16.8057 8.57038Z" fill="#633001" stroke="#633001" stroke-width="0.1"/>
<path d="M21.9617 15.6312C21.9617 19.1213 17.2881 21.9704 11.5359 21.9704C5.78382 21.9704 1.11023 19.1213 1.11023 15.6312V13.993H21.9639V15.6312H21.9617Z" fill="#FEDC90"/>
<path fill-rule="evenodd" clip-rule="evenodd" d="M5.13671 3.52252C4.8491 2.24043 5.85573 1.02956 7.14995 1.02956C8.30038 1.02956 9.2351 1.95552 9.2351 3.09516V7.79617C9.95411 7.72494 10.6731 7.65371 11.464 7.65371C12.1831 7.65371 12.9021 7.72494 13.6211 7.79617V3.09516C13.6211 1.95552 14.5558 1.02956 15.7062 1.02956C17.0005 1.02956 18.0071 2.24043 17.7914 3.52252L16.8567 8.6509C19.8765 9.79053 21.9617 11.7849 21.9617 14.0642C21.9617 17.5543 17.2881 20.4034 11.5359 20.4034C5.78382 20.4034 1.11023 17.5543 1.11023 14.0642C1.11023 11.7849 3.12347 9.79053 6.14333 8.6509L5.13671 3.52252Z" fill="#D1884F"/>
<path d="M8.58799 13.5656C8.58799 14.4915 8.08468 15.275 7.43757 15.275C6.79046 15.275 6.28715 14.4915 6.28715 13.5656C6.28715 12.6396 6.79046 11.8561 7.43757 11.8561C8.08468 11.8561 8.58799 12.6396 8.58799 13.5656Z" fill="#633001"/>
<path d="M16.5691 13.5656C16.5691 14.4915 16.0657 15.275 15.4186 15.275C14.7715 15.275 14.2682 14.4915 14.2682 13.5656C14.2682 12.6396 14.7715 11.8561 15.4186 11.8561C16.0657 11.8561 16.5691 12.6396 16.5691 13.5656Z" fill="#633001"/>
</svg>
